<svg xmlns="http://www.w3.org/2000/svg" width="512" height="512" viewBox="0 0 512 512" version="1.1">
	<path d="M 236.500 39.647 C 200.604 43.809, 166.601 56.762, 137.500 77.362 C 106.194 99.523, 83.263 126.214, 66.934 159.500 C 47.757 198.589, 40.183 242.548, 45.535 283.699 C 50.547 322.239, 67.707 361.996, 92.712 393 C 99.791 401.777, 118.897 420.515, 127.500 427.116 C 151.071 445.202, 176.787 457.504, 206.500 464.905 C 231.649 471.170, 267.380 472.232, 293 467.477 C 362.411 454.595, 421.133 407.943, 449.569 343.091 C 472.362 291.106, 473.752 236.223, 453.675 180.945 C 447.037 162.669, 435.859 142.080, 423.574 125.498 C 415.558 114.680, 390.671 90.015, 379 81.324 C 340.252 52.467, 299.461 38.687, 254.158 39.150 C 246.096 39.232, 238.150 39.456, 236.500 39.647 M 238.230 72.105 C 207.661 75.659, 174.351 90.255, 146.822 112.158 C 135.733 120.981, 121.272 136.192, 113.141 147.588 C 105.808 157.864, 94.584 180.294, 90.025 193.781 C 77.703 230.239, 76.958 277.871, 88.164 312.854 C 103.574 360.961, 130.552 394.239, 172.500 416.884 C 233.573 449.854, 306.375 443.660, 363.400 400.642 C 393.294 378.090, 411.928 350.005, 424.415 308.676 C 429.691 291.212, 431.346 279.855, 431.362 261 C 431.395 220.760, 421.007 183.495, 401.257 153 C 382.281 123.701, 350.275 97.847, 315.298 83.564 C 289.593 73.068, 263.418 69.176, 238.230 72.105 M 233.500 87.389 C 202.236 92.555, 174.015 106.337, 149.450 128.438 C 124.435 150.943, 105.665 184.094, 98.173 219 C 81.625 296.095, 117.487 374.055, 185.147 408.074 C 195.581 413.320, 213.881 419.401, 226 421.650 C 240.616 424.362, 274.017 424.120, 287.565 421.204 C 302.523 417.984, 312.046 414.650, 326.500 407.570 C 343.514 399.237, 354.895 391.075, 369.132 377 C 413.418 333.215, 428.432 264.146, 407.359 201.143 C 400.593 180.914, 387.543 157.940, 373.646 141.792 C 351.441 115.990, 317.905 95.951, 285.199 88.942 C 272.743 86.272, 245.255 85.447, 233.500 87.389 M 241.609 100.997 C 199.748 106.254, 158.571 131.511, 136.447 165.500 C 108.775 208.012, 101.672 260.058, 117.095 307.299 C 125.117 331.871, 141.655 357.462, 159.799 373.378 C 198.110 406.986, 252.155 418.113, 300.500 402.345 C 344.846 387.882, 377.596 355.065, 393.392 309.265 C 408.600 265.169, 402.835 215, 377.723 172.918 C 356.605 137.526, 319.209 110.912, 278.971 102.636 C 269.543 100.696, 250.612 99.866, 241.609 100.997 M 234.427 164.634 C 193.279 198.060, 133 248.829, 133 250.060 C 133 250.598, 138.483 251, 145.813 251 L 158.626 251 161.500 254 C 164.170 256.787, 164.427 257.763, 165.124 267.750 C 165.536 273.662, 165.902 293.238, 165.937 311.250 L 166 344 160.200 344 C 157.010 344, 153.860 344.540, 153.200 345.200 C 152.540 345.860, 152 348.335, 152 350.700 L 152 355 256 355 L 360 355 360 350.559 C 360 345.387, 359.234 344.716, 352.530 344.018 L 347.560 343.500 347.876 301.062 C 348.050 277.721, 348.562 257.653, 349.013 256.467 C 350.924 251.439, 352.293 251, 366.071 251 C 373.321 251, 379 250.594, 379 250.075 C 379 249.567, 375.175 245.669, 370.500 241.413 L 362 233.676 362 211.538 C 362 195.653, 361.661 189.061, 360.800 188.200 C 359.998 187.398, 355.549 187, 347.371 187 C 331.681 187, 331.688 186.994, 332.157 199.316 C 332.376 205.055, 332.116 208.438, 331.439 208.673 C 330.855 208.875, 328.492 207.301, 326.189 205.174 L 322 201.307 322 178.761 C 322 161.418, 321.706 156.101, 320.726 155.725 C 320.025 155.456, 313.275 155.472, 305.726 155.760 L 292 156.284 292 167.142 C 292 174.111, 291.621 178, 290.942 178 C 290.360 178, 281.787 171.925, 271.891 164.500 C 261.994 157.075, 253.293 151, 252.554 151 C 251.815 151, 243.658 157.135, 234.427 164.634 M 241.075 179.311 C 235.037 183.883, 221.018 195.020, 209.923 204.061 C 198.827 213.103, 184.518 224.714, 178.124 229.865 C 171.731 235.015, 166.169 239.740, 165.765 240.365 C 165.361 240.989, 165.024 242.963, 165.015 244.750 L 165 248 254.981 248 L 344.962 248 345.631 245.335 C 346.593 241.503, 349.871 244.250, 281.149 191.302 C 266.657 180.136, 254.181 171, 253.426 171 C 252.671 171, 247.113 174.740, 241.075 179.311 M 266.557 265.223 C 265.348 266.948, 265 270.258, 265 280.031 C 265 296.904, 264.657 296.500, 279 296.500 C 293.633 296.500, 293.222 297.029, 292.810 278.712 C 292.564 267.786, 292.189 264.727, 291 263.977 C 290.175 263.456, 284.688 263.024, 278.807 263.015 C 268.881 263.001, 268.002 263.160, 266.557 265.223 M 300.250 263.662 C 299.329 264.034, 299 268.074, 299 279.027 C 299 297.360, 298.720 297, 313 297 C 327.135 297, 327 297.160, 327 280.378 C 327 272.948, 326.534 265.998, 325.965 264.934 C 325.028 263.183, 323.819 263.007, 313.215 263.079 C 306.772 263.122, 300.938 263.385, 300.250 263.662 M 189.655 265.829 C 188.370 267.249, 188 269.694, 188 276.772 C 188 285.057, 188.202 286.028, 190.223 287.443 C 192.749 289.213, 200.171 289.514, 203.066 287.965 C 204.785 287.045, 205 285.790, 205 276.665 C 205 270.014, 204.577 265.977, 203.800 265.200 C 201.822 263.222, 191.603 263.676, 189.655 265.829 M 212.250 264.662 C 211.357 265.022, 211 268.279, 211 276.048 C 211 288.448, 211.351 289, 219.243 289 C 226.606 289, 227.502 287.665, 227.489 276.717 C 227.475 264.952, 226.826 263.971, 219.128 264.079 C 216.032 264.122, 212.938 264.385, 212.250 264.662 M 189.571 294.571 C 187.595 296.547, 187.292 313.892, 189.200 315.800 C 190.782 317.382, 201.161 317.345, 203.272 315.750 C 205.400 314.142, 205.998 296.908, 204.009 294.511 C 202.250 292.391, 191.708 292.435, 189.571 294.571 M 211.571 294.571 C 210.382 295.761, 210.004 298.250, 210.015 304.821 C 210.024 309.595, 210.426 314.124, 210.909 314.887 C 212.301 317.086, 221.481 317.570, 224.484 315.603 C 226.860 314.045, 227 313.459, 227 305.048 C 227 294.151, 226.188 293, 218.500 293 C 214.963 293, 212.609 293.534, 211.571 294.571 M 234.200 299.200 C 233.365 300.035, 233 305.340, 233 316.629 C 233 330.048, 233.272 333.129, 234.571 334.429 C 236.431 336.288, 241.101 336.499, 242.800 334.800 C 244.331 333.269, 244.475 302.756, 242.965 299.934 C 241.778 297.717, 236.154 297.246, 234.200 299.200 M 308.542 301.697 C 304.715 301.919, 301.002 302.583, 300.292 303.173 C 298.531 304.634, 298.449 332.049, 300.200 333.800 C 302.138 335.738, 323.432 335.425, 325.429 333.429 C 327.688 331.170, 327.749 304.866, 325.499 303 C 323.751 301.549, 318.303 301.130, 308.542 301.697 M 267 302.978 C 265.782 303.747, 265.500 306.582, 265.500 318.041 C 265.500 335.456, 265.130 335, 279.257 335 C 293.543 335, 293 335.617, 293 319.399 C 293 311.957, 292.534 304.998, 291.965 303.934 C 291.035 302.197, 289.788 302.002, 279.715 302.015 C 273.547 302.024, 267.825 302.457, 267 302.978" stroke="none" fill="black" fill-rule="evenodd"/>
</svg>